<mxfile host="app.diagrams.net" modified="2023-10-24T02:34:23.413Z" agent="Mozilla/5.0 (Windows NT 10.0; Win64; x64) AppleWebKit/537.36 (KHTML, like Gecko) Chrome/118.0.0.0 Safari/537.36 Edg/118.0.2088.61" etag="HhdRrxLua0xES1e-czLe" version="22.0.6" type="google">
  <diagram name="PÃ¡gina-1" id="NzQ-S5oHHCXLHP6W_gft">
    <mxGraphModel grid="1" page="1" gridSize="10" guides="1" tooltips="1" connect="1" arrows="1" fold="1" pageScale="1" pageWidth="1600" pageHeight="900" math="0" shadow="0">
      <root>
        <mxCell id="0" />
        <mxCell id="1" parent="0" />
        <mxCell id="BdMyhIaGQ416cWbxKwbg-16" style="rounded=0;orthogonalLoop=1;jettySize=auto;html=1;exitX=1;exitY=0.5;exitDx=0;exitDy=0;entryX=0;entryY=0;entryDx=0;entryDy=0;strokeWidth=3;" edge="1" parent="1" source="BdMyhIaGQ416cWbxKwbg-1" target="BdMyhIaGQ416cWbxKwbg-3">
          <mxGeometry relative="1" as="geometry" />
        </mxCell>
        <mxCell id="BlqDBkXr38ZcFcGv8f7b-12" style="rounded=0;orthogonalLoop=1;jettySize=auto;html=1;exitX=0;exitY=0.5;exitDx=0;exitDy=0;entryX=1;entryY=0;entryDx=0;entryDy=0;fillColor=#f8cecc;strokeWidth=3;" edge="1" parent="1" source="BdMyhIaGQ416cWbxKwbg-1" target="BlqDBkXr38ZcFcGv8f7b-10">
          <mxGeometry relative="1" as="geometry" />
        </mxCell>
        <mxCell id="BdMyhIaGQ416cWbxKwbg-1" value="56" style="ellipse;whiteSpace=wrap;html=1;aspect=fixed;fontSize=45;strokeWidth=2;" vertex="1" parent="1">
          <mxGeometry x="480" y="40" width="80" height="80" as="geometry" />
        </mxCell>
        <mxCell id="BdMyhIaGQ416cWbxKwbg-26" style="rounded=0;orthogonalLoop=1;jettySize=auto;html=1;exitX=0;exitY=1;exitDx=0;exitDy=0;entryX=0.5;entryY=0;entryDx=0;entryDy=0;strokeWidth=3;" edge="1" parent="1" source="BdMyhIaGQ416cWbxKwbg-3" target="BdMyhIaGQ416cWbxKwbg-11">
          <mxGeometry relative="1" as="geometry" />
        </mxCell>
        <mxCell id="BdMyhIaGQ416cWbxKwbg-3" value="78" style="ellipse;whiteSpace=wrap;html=1;aspect=fixed;fontSize=45;strokeWidth=2;" vertex="1" parent="1">
          <mxGeometry x="640" y="120" width="80" height="80" as="geometry" />
        </mxCell>
        <mxCell id="BdMyhIaGQ416cWbxKwbg-18" style="rounded=0;orthogonalLoop=1;jettySize=auto;html=1;exitX=0;exitY=1;exitDx=0;exitDy=0;fillColor=#f8cecc;strokeColor=default;strokeWidth=3;entryX=0.5;entryY=0;entryDx=0;entryDy=0;" edge="1" parent="1" source="BdMyhIaGQ416cWbxKwbg-5" target="BdMyhIaGQ416cWbxKwbg-6">
          <mxGeometry relative="1" as="geometry">
            <mxPoint x="260" y="324" as="targetPoint" />
          </mxGeometry>
        </mxCell>
        <mxCell id="MGS4H1-cNWBn-6Zi0tOQ-2" style="rounded=0;orthogonalLoop=1;jettySize=auto;html=1;exitX=1;exitY=1;exitDx=0;exitDy=0;entryX=0.5;entryY=0;entryDx=0;entryDy=0;fillColor=#f8cecc;strokeWidth=3;" edge="1" parent="1" source="BdMyhIaGQ416cWbxKwbg-5" target="MGS4H1-cNWBn-6Zi0tOQ-1">
          <mxGeometry relative="1" as="geometry" />
        </mxCell>
        <mxCell id="BdMyhIaGQ416cWbxKwbg-5" value="21" style="ellipse;whiteSpace=wrap;html=1;aspect=fixed;fontSize=45;strokeWidth=2;" vertex="1" parent="1">
          <mxGeometry x="240" y="240" width="80" height="80" as="geometry" />
        </mxCell>
        <mxCell id="BdMyhIaGQ416cWbxKwbg-6" value="12" style="ellipse;whiteSpace=wrap;html=1;aspect=fixed;fontSize=45;strokeWidth=2;" vertex="1" parent="1">
          <mxGeometry x="160" y="360" width="80" height="80" as="geometry" />
        </mxCell>
        <mxCell id="BdMyhIaGQ416cWbxKwbg-9" value="89" style="ellipse;whiteSpace=wrap;html=1;aspect=fixed;fontSize=45;strokeWidth=2;" vertex="1" parent="1">
          <mxGeometry x="720" y="240" width="80" height="80" as="geometry" />
        </mxCell>
        <mxCell id="BdMyhIaGQ416cWbxKwbg-11" value="67" style="ellipse;whiteSpace=wrap;html=1;aspect=fixed;fontSize=45;strokeWidth=2;" vertex="1" parent="1">
          <mxGeometry x="560" y="240" width="80" height="80" as="geometry" />
        </mxCell>
        <mxCell id="BlqDBkXr38ZcFcGv8f7b-11" style="rounded=0;orthogonalLoop=1;jettySize=auto;html=1;exitX=0;exitY=1;exitDx=0;exitDy=0;entryX=0.5;entryY=0;entryDx=0;entryDy=0;fillColor=#f8cecc;strokeWidth=3;" edge="1" parent="1" source="BlqDBkXr38ZcFcGv8f7b-10" target="BdMyhIaGQ416cWbxKwbg-5">
          <mxGeometry relative="1" as="geometry" />
        </mxCell>
        <mxCell id="S_0U84vT8tra5gQHdIF1-2" style="rounded=0;orthogonalLoop=1;jettySize=auto;html=1;exitX=1;exitY=0.5;exitDx=0;exitDy=0;entryX=0.5;entryY=0;entryDx=0;entryDy=0;fillColor=#f8cecc;strokeWidth=3;" edge="1" parent="1" source="MGS4H1-cNWBn-6Zi0tOQ-1" target="S_0U84vT8tra5gQHdIF1-1">
          <mxGeometry relative="1" as="geometry" />
        </mxCell>
        <mxCell id="BlqDBkXr38ZcFcGv8f7b-10" value="34" style="ellipse;whiteSpace=wrap;html=1;aspect=fixed;fontSize=45;strokeWidth=2;" vertex="1" parent="1">
          <mxGeometry x="320" y="120" width="80" height="80" as="geometry" />
        </mxCell>
        <mxCell id="SShSaDi_H24oiUzQfklp-3" style="rounded=0;orthogonalLoop=1;jettySize=auto;html=1;exitX=1;exitY=1;exitDx=0;exitDy=0;entryX=0.5;entryY=0;entryDx=0;entryDy=0;fillColor=#f8cecc;strokeWidth=3;" edge="1" parent="1" source="BdMyhIaGQ416cWbxKwbg-3" target="BdMyhIaGQ416cWbxKwbg-9">
          <mxGeometry relative="1" as="geometry" />
        </mxCell>
        <mxCell id="S_0U84vT8tra5gQHdIF1-1" value="55" style="ellipse;whiteSpace=wrap;html=1;aspect=fixed;fontSize=45;strokeWidth=2;" vertex="1" parent="1">
          <mxGeometry x="400" y="480" width="80" height="80" as="geometry" />
        </mxCell>
        <mxCell id="MGS4H1-cNWBn-6Zi0tOQ-1" value="34" style="ellipse;whiteSpace=wrap;html=1;aspect=fixed;fontSize=45;strokeWidth=2;" vertex="1" parent="1">
          <mxGeometry x="320" y="360" width="80" height="80" as="geometry" />
        </mxCell>
      </root>
    </mxGraphModel>
  </diagram>
</mxfile>
